<?xml version="1.0" encoding="UTF-8"?>
<!-- Simple OpenAI/ChatGPT knot-like logo (monochrome), suitable for UI indicator -->
<svg xmlns="http://www.w3.org/2000/svg" viewBox="0 0 256 256" width="256" height="256" aria-hidden="true">
  <defs>
    <linearGradient id="g" x1="0" y1="0" x2="1" y2="1">
      <stop offset="0%" stop-color="#10b981"/>
      <stop offset="100%" stop-color="#059669"/>
    </linearGradient>
  </defs>
  <g fill="none" stroke="url(#g)" stroke-width="20" stroke-linecap="round" stroke-linejoin="round">
    <path d="M128 28c20 0 38 10 48 26 8 12 10 26 8 40 14 2 28 8 38 20 22 26 18 65-8 86-10 8-22 12-34 12-4 14-12 26-24 36-26 22-65 18-86-8-8-10-12-22-12-34-14-4-26-12-36-24-22-26-18-65 8-86 10-8 22-12 34-12 4-14 12-26 24-36 12-10 26-14 40-14z"/>
    <path d="M86 68l84 48M86 188l84-48M58 120l56 96M142 40l56 96M72 80l112 96" opacity=".5"/>
  </g>
  <circle cx="128" cy="128" r="16" fill="#10b981"/>
</svg>
